PathFileType	4	(X/Y/Z)	RBDS025\RBDS025runT25.trc
DataRate	CameraRate	NumFrames	NumMarkers	Units	OrigDataRate	OrigDataStartFrame	OrigNumFrames
150.000000	150.000000	6	33	mm	150.000000	1687	4500
Frame#	Time	L.ASIS			L.Heel.Bottom			L.Heel.Lateral			L.Heel.Top			L.Iliac.Crest			L.MT1			L.MT5			L.PSIS			L.Shank.Bottom.Lateral			L.Shank.Bottom.Medial			L.Shank.Top.Lateral			L.Shank.Top.Medial			L.Thigh.Bottom.Lateral			L.Thigh.Bottom.Medial			L.Thigh.Top.Lateral			L.Thigh.Top.Medial			R.ASIS			R.ASY			R.Heel.Bottom			R.Heel.Lateral			R.Heel.Top			R.Iliac.Crest			R.MT1			R.MT5			R.PSIS			R.Shank.Bottom.Lateral			R.Shank.Bottom.Medial			R.Shank.Top.Lateral			R.Shank.Top.Medial			R.Thigh.Bottom.Lateral			R.Thigh.Bottom.Medial			R.Thigh.Top.Lateral			R.Thigh.Top.Medial			
		X1	Y1	Z1	X2	Y2	Z2	X3	Y3	Z3	X4	Y4	Z4	X5	Y5	Z5	X6	Y6	Z6	X7	Y7	Z7	X8	Y8	Z8	X9	Y9	Z9	X10	Y10	Z10	X11	Y11	Z11	X12	Y12	Z12	X13	Y13	Z13	X14	Y14	Z14	X15	Y15	Z15	X16	Y16	Z16	X17	Y17	Z17	X18	Y18	Z18	X19	Y19	Z19	X20	Y20	Z20	X21	Y21	Z21	X22	Y22	Z22	X23	Y23	Z23	X24	Y24	Z24	X25	Y25	Z25	X26	Y26	Z26	X27	Y27	Z27	X28	Y28	Z28	X29	Y29	Z29	X30	Y30	Z30	X31	Y31	Z31	X32	Y32	Z32	X33	Y33	Z33	

1688	11.24666666666667	2180.307934925216	896.3534769739766	895.4597191659731	1606.776857905833	377.5730497489898	908.0426245523041	1621.076581282691	350.2127583119286	862.3723308310088	1650.75032895609	369.8593439859035	902.7857318470076	2118.357612388278	966.4701448033643	841.0082424594757	1633.497275566598	170.1561556413778	942.0159671842048	1610.05733908978	196.6453958768346	835.4060445541724	2017.275157626629	955.1105287271371	938.6826260716581	1755.633493505967	331.5579739783099	840.8463335375616	1740.38329213721	377.0156617902472	869.3403133854155	1828.224073861612	364.4236118909857	829.2074760749396	1813.729093866631	409.2251624185822	855.2277100398455	2066.17311442595	549.0897471043728	824.8963292194771	2003.121669182148	549.3669877673934	861.7811832913189	2060.264158102495	657.6002966844038	816.2865093134296	2002.708669498333	658.3824983516398	856.5314399950215	2179.211843539531	919.5775107776082	1097.814992671797	2255.376458816559	77.36530606903194	1017.323656274917	2073.386827629121	27.72708511248677	982.479936118135	2093.763047559671	48.46229225112737	1026.837294277631	2082.897543793598	71.7209491242303	983.7536953833096	2114.34137145993	975.22958643229	1140.213944493659	2290.537709553488	41.96145726461183	974.4494767142726	2244.21035758466	33.15723795520645	1080.541351145939	2014.360114439359	959.4678962135862	1041.862333155895	2166.680111919877	173.5561795803626	1063.745692470048	2125.210911098768	189.1471286579325	1036.950815423422	2179.400514779692	254.1241708470894	1086.9430546819	2135.80363723855	266.5271017637806	1058.060782648097	2207.801980578388	559.7484784932373	1133.115458405435	2150.213455821128	536.1827292860025	1098.400323349845	2156.90552557866	654.9955072804424	1154.880667968911	2100.419852754211	630.5913303795958	1124.862436533745	
1689	11.25333333333333	2179.173018053928	892.8817118645262	895.8085992326481	1617.274964581349	380.4367951192926	908.7302870939171	1631.291891089654	353.6630258718041	862.5947793197076	1661.157841938103	372.3489728704785	903.3408085112163	2116.576979619024	961.5083425093237	841.1818210446951	1641.577349800275	171.9339611220431	939.0089787725519	1618.522907044742	200.6559885029516	832.8986500736017	2015.739441477161	951.0165718034075	938.8625658828165	1765.506655910284	332.6871263988072	840.0054746313745	1751.467898828998	378.157648761991	869.1640521273681	1838.650548057858	364.0933719353532	828.3043677542703	1825.456971839129	408.8126247299354	855.003144896854	2073.061497982532	544.7351622328687	823.6046999910293	2010.244759500231	543.0842503352385	860.7925909232729	2064.308649907996	653.1367470594499	815.9730673425302	2007.176196096249	652.1131453949565	856.7445922374357	2178.126638687233	916.3045876817065	1098.235654843384	2239.672549062401	76.76928730575264	1016.857945360001	2057.215182867582	28.66880956965078	982.5693725344112	2077.761982236463	49.5401428506417	1026.785113102272	2067.117500126698	72.65219717356831	983.5896140279723	2112.304431961024	970.6655317743241	1140.838502886522	2274.543528411309	41.40598517261451	974.5509549852698	2228.023538605632	33.53470288075017	1080.744956868057	2012.976044863529	955.6928181350296	1041.899756909429	2155.861202277661	173.537681812553	1063.106039806047	2114.593968461381	190.5708646263278	1036.782995671131	2171.588466216495	253.5472544003253	1086.385356962424	2128.160074083913	267.5803601056988	1057.97302645646	2206.904761872695	556.3295847177066	1133.128647589778	2149.38953146387	532.9064200803437	1098.068905729575	2155.823677729637	651.5467282554736	1154.988573960647	2099.405284139561	627.1987220946241	1124.713933379435	
1690	11.26	2177.894337055981	889.8379292558695	896.113425420333	1627.957153519611	382.2816737200618	909.0997063182211	1642.079555969736	356.1580216530998	862.6028149696556	1671.809259309836	374.0643398995137	903.7312742837867	2114.35720347838	957.3124395081921	841.3938420195273	1651.102309563817	173.0443837729686	936.1705186170908	1628.766137516037	203.6700677546472	830.4249796915817	2014.18509178806	947.506680369024	939.166827351121	1776.115172979765	333.5024494035141	839.2656418662716	1763.116094142753	378.96515214178	868.982121878166	1849.710900345538	363.6484236536509	827.4954285521952	1837.639894510397	408.2741448814165	854.7645392625934	2080.177350353096	541.011006991389	822.308026328355	2017.582962777337	537.3880010238333	859.6526370678117	2068.53759310824	649.2176499410676	815.6608372851059	2011.793213529771	646.3520893222043	856.8026539818742	2177.027221155051	913.242634613864	1098.621908548126	2223.697766414537	76.57309871252184	1016.542350897129	2041.080120932636	29.45877053794411	982.6014119001321	2061.70240840365	50.49156995364777	1026.7058592483	2051.241709901187	73.43073779642471	983.3950154715069	2110.274986116774	966.4669797962273	1141.463871626964	2258.393657164316	41.43282966881134	974.8300081243464	2211.705019336602	34.12568905578946	1080.973508353699	2011.644277567484	952.3844166251666	1042.078794720116	2144.416385513048	173.4992673707387	1062.419997076256	2103.432352200168	191.9010100733985	1036.501850235526	2162.94090964005	252.8783987592968	1085.762054646093	2119.791214802119	268.4546466763528	1057.724796170073	2205.012736244281	552.7966622552703	1132.973828270621	2147.508466059241	529.7464426754334	1097.530169025109	2154.046384562775	648.1320825942047	1154.989663035858	2097.671035657906	624.0815012990363	1124.356414036929	
1691	11.26666666666667	2176.50795765459	887.2655184668831	896.3674572180842	1638.732796137014	383.1020762274985	909.1074976987128	1653.3288046832	357.6635583690054	862.3656131732287	1682.618712878465	374.9901854051981	903.9188382683695	2111.743215520208	953.941535806206	841.6386316325345	1661.980367222833	173.4559049313357	933.544297918065	1640.645277000224	205.6136284279191	828.0218152012864	2012.637544314449	944.59435252293	939.5964152497677	1787.359399988078	333.978060130535	838.6170815631888	1775.20718627456	379.4215652915804	868.7842595057947	1861.306165813778	363.0990686267014	826.7719827663794	1850.154650147274	407.6319495959908	854.5060527992417	2087.522730993212	537.9734857767099	821.0200398625524	2025.138759169532	532.3377182237641	858.3816713309365	2072.948394950552	645.8963325556623	815.341806161913	2016.548296448941	641.1540826999466	856.6847736569649	2175.930729666551	910.4135087355103	1098.967516607031	2207.508444590343	76.59805140680636	1016.317512604329	2024.922880705034	30.09772073362203	982.56113299997	2045.558216575421	51.30659531647441	1026.578762934385	2035.26326774822	74.0576325819783	983.1467422226688	2108.34760499443	962.7003296115324	1142.080318635147	2242.109247634505	41.78229180270257	975.2061241516693	2195.263597980204	34.77110717167216	1081.180118422696	2010.383642798168	949.5775824022287	1042.40132657275	2132.342546419834	173.3685632220404	1061.672128382128	2091.700179584942	193.0514866760461	1036.109341314268	2153.434923187565	252.0668754287835	1085.067525723077	2110.644323021688	269.0762095692172	1057.326045070684	2202.070662768975	549.1777344343344	1132.640625181395	2144.496675005331	526.7259370292117	1096.818086325672	2151.560113589203	644.792243240349	1154.864954307467	2095.175747541766	621.2821111760859	1123.820882020635	
1692	11.27333333333333	2175.052035827563	885.1942753988579	896.571564572772	1649.53778800112	382.8885063591083	908.7472998354433	1664.938344833817	358.152081555036	861.8819565484011	1693.519193983281	375.1098709477742	903.8910892555837	2108.818498722604	951.4020266938534	841.9094072540562	1674.122604398283	173.1390432746717	931.1602583539126	1653.996172609091	206.445795868744	825.7233226362891	2011.116065077144	942.2770124698061	940.1356921850138	1799.137451761989	334.0894091436984	838.0509826485701	1787.618123792412	379.5081825619742	868.5632196184936	1873.329859776473	362.4588317450766	826.1241504973336	1862.872613758427	406.9068125826647	854.2236382152469	2095.095093336164	535.6757388543552	819.7547427266894	2032.911181865532	527.992468613659	857.0022874179235	2077.53841716252	643.2225042565711	815.0068089545384	2021.430504818471	636.57237124041	856.3717259841144	2174.843969863728	907.8431099235254	1099.2702090346	2191.154796388161	76.69881376020741	1016.128621140211	2008.69285942098	30.60549960769614	982.441751674414	2029.309847814477	51.99642305102299	1026.390573109202	2019.176053363159	74.55193032106388	982.8303378813547	2106.608854653002	959.4215659744557	1142.677455672159	2225.704401577859	42.23823557604277	975.6046262543556	2178.708042297799	35.35593956404363	1081.328634932919	2009.201173277349	947.2967950658957	1042.851023746474	2119.659788374569	173.1130903470136	1060.856014638894	2079.396909043532	193.9799209219573	1035.613975058423	2143.083961409523	251.1016217083228	1084.303438944575	2100.70263912242	269.4180815491094	1056.794250910673	2198.076512996488	545.5329404518253	1132.140259832457	2140.341024694364	523.8866602697574	1095.984497744996	2148.379534787055	641.5876365964504	1154.612727813459	2091.912023156812	618.8476678448275	1123.155975365303	
1693	11.28	2173.565664176469	883.6418139202322	896.7351559418707	1660.332802915487	381.6247686890066	908.0469210150528	1676.819356678474	357.601064259992	861.177346636478	1704.461172498814	374.4038178477847	903.6590588484387	2105.698152321502	949.6551337803218	842.1994679968606	1687.448238622227	172.0693353858498	929.034923778834	1668.645505083167	206.1583991726403	823.5596249358135	2009.634758662273	940.5412858025433	940.7526606916817	1811.3501109128	333.8142608749467	837.5606386076786	1800.229347578172	379.2052933481497	868.3136269536745	1885.67428768652	361.7421903204907	825.5432104693026	1875.666312502932	406.1162680643662	853.9141802240061	2102.885293770054	534.1664157127533	818.5270432109747	2040.89346920805	524.4092767548744	855.5383731227129	2082.304292484979	641.2409357604968	814.6472804489558	2026.428483771712	632.6574474777134	855.8471382458476	2173.764288514993	905.5634459518436	1099.533907697383	2174.681945097486	76.77305604202047	1015.932158763306	1992.355265811081	31.01856921746527	982.2454557673844	2012.949538412903	52.5908396911046	1026.136938297857	2002.97963718961	74.94846337614176	982.4416510221898	2105.125322370801	956.6780050977459	1143.242205452359	2209.190560403386	42.64295979370708	975.9636841116416	2162.049711450082	35.81193985870195	1081.396224619813	2008.093612029179	945.5557908915741	1043.39380456012	2106.408687332853	172.7398505774535	1059.975542885133	2066.54614557317	194.686902464632	1035.029856209264	2131.932560233111	250.0096988329103	1083.479014449661	2089.983215348026	269.4984688754946	1056.152255762425	2193.075062559957	541.9485481250599	1131.501349956396	2135.083777570407	521.2871827820854	1095.089915339923	2144.542723097305	638.5931646602171	1154.246017560735	2087.904447421188	616.8279746924371	1122.418998294342	
